{"glyphs":{"0":{"ha":743,"x_min":83,"x_max":740,"o":"m 456 889 q 668 775 599 889 q 721 438 740 660 q 497 14 688 103 q 368 -15 438 -15 q 157 97 226 -15 q 106 438 83 217 q 221 775 125 657 q 456 889 313 889 m 618 437 q 626 522 618 437 q 591 698 635 607 q 446 789 547 789 q 284 698 344 789 q 207 437 224 607 q 235 176 190 267 q 380 85 279 85 q 541 176 481 85 q 618 437 601 267 z "},"1":{"ha":414,"x_min":126,"x_max":369,"o":"m 369 876 l 288 0 l 190 0 l 260 746 q 126 697 199 704 l 136 806 q 290 876 224 818 l 369 876 z "},"2":{"ha":725,"x_min":81,"x_max":713,"o":"m 188 101 l 643 101 l 635 0 l 81 0 l 92 129 q 219 356 107 283 q 297 397 254 379 l 458 467 q 594 640 583 519 q 564 749 601 707 q 452 792 526 792 q 328 757 378 792 q 264 653 278 722 l 156 653 q 253 828 172 767 q 460 889 335 889 q 643 817 576 889 q 701 638 713 743 q 635 469 690 532 q 490 369 581 407 l 325 299 q 230 235 263 271 q 192 143 197 200 l 188 101 z "},"3":{"ha":739,"x_min":76,"x_max":701,"o":"m 446 889 q 549 871 501 889 q 631 822 597 853 q 693 650 701 756 q 536 457 678 510 q 649 379 608 433 q 684 254 690 325 q 653 136 678 183 q 588 56 628 89 q 369 -15 501 -15 q 164 56 243 -15 q 90 268 76 135 l 193 268 q 240 131 186 178 q 380 85 293 85 q 519 131 467 85 q 578 247 571 178 q 542 359 585 315 q 396 403 500 403 l 306 403 l 315 490 l 376 490 q 522 530 467 490 q 585 636 578 569 q 553 746 592 703 q 444 789 514 789 q 324 762 374 789 q 253 661 275 735 l 150 661 q 257 836 174 776 q 446 889 331 889 z "},"4":{"ha":699,"x_min":51,"x_max":700,"o":"m 618 886 l 564 306 l 700 306 l 690 211 l 554 211 l 535 0 l 439 0 l 457 211 l 51 211 l 60 296 l 528 886 l 618 886 m 178 296 l 468 296 l 507 713 l 178 296 z "},"5":{"ha":706,"x_min":93,"x_max":681,"o":"m 285 522 q 410 535 353 535 q 606 472 539 535 q 663 283 674 408 q 567 69 649 150 q 351 -15 478 -15 q 167 50 235 -15 q 104 243 93 121 l 203 243 q 242 124 196 164 q 361 85 288 85 q 497 142 443 85 q 558 281 551 196 q 381 449 574 449 l 169 449 l 244 874 l 681 874 l 671 774 l 331 774 l 285 522 z "},"6":{"ha":717,"x_min":86,"x_max":700,"o":"m 593 653 q 467 789 583 789 q 289 686 358 789 q 197 344 211 572 q 196 283 194 313 q 361 514 226 471 q 449 526 401 526 q 540 506 496 526 q 614 450 583 486 q 668 253 679 371 q 574 58 654 132 q 374 -17 494 -17 q 158 108 235 -17 q 103 421 86 231 q 222 764 122 638 q 474 889 321 889 q 640 824 581 889 q 699 653 700 758 l 593 653 m 294 379 q 268 354 294 379 q 235 253 242 329 q 272 131 229 176 q 385 85 314 85 q 507 131 456 85 q 565 257 558 176 q 530 383 572 338 q 417 429 488 429 q 294 379 347 429 z "},"7":{"ha":588,"x_min":72,"x_max":647,"o":"m 647 874 l 638 772 l 206 0 l 72 0 l 522 768 l 103 768 l 113 874 l 647 874 z "},"8":{"ha":768,"x_min":79,"x_max":742,"o":"m 464 889 q 581 870 531 889 q 667 819 632 851 q 731 646 742 750 q 675 517 725 572 q 543 446 624 460 l 564 438 q 688 352 647 401 q 719 208 729 303 q 621 49 710 114 q 381 -15 532 -15 q 161 56 244 -15 q 90 233 79 126 q 153 374 97 319 q 292 442 208 428 q 201 511 229 475 q 156 657 149 581 q 247 824 164 761 q 464 889 333 889 m 382 401 q 250 347 304 393 q 193 243 199 303 q 244 125 185 169 q 396 85 299 85 q 553 121 493 85 q 617 208 613 157 q 594 291 622 260 q 518 343 567 322 l 382 401 m 356 529 l 443 490 q 569 533 518 493 q 628 640 621 574 q 588 748 636 707 q 457 789 540 789 q 322 750 378 789 q 259 642 265 708 q 356 529 253 576 z "},"9":{"ha":726,"x_min":99,"x_max":725,"o":"m 436 889 q 555 858 500 889 q 646 771 610 828 q 706 453 725 647 q 493 17 671 113 q 363 -15 432 -15 q 247 5 294 -15 q 167 61 199 25 q 110 258 99 140 l 214 258 q 246 132 207 179 q 350 85 285 85 q 457 112 415 85 q 529 189 499 139 q 606 468 588 286 q 608 571 611 521 q 519 403 585 458 q 364 347 453 347 q 193 424 257 347 q 140 621 129 501 q 233 815 151 742 q 436 889 314 889 m 572 619 q 575 658 572 619 q 535 742 578 696 q 423 788 493 788 q 301 742 353 788 q 242 615 250 696 q 277 489 235 535 q 392 443 319 443 q 513 492 461 443 q 572 619 565 543 z "}," ":{"ha":297,"x_min":0,"x_max":0,"o":""},"!":{"ha":347,"x_min":104,"x_max":308,"o":"m 206 871 l 308 871 l 239 244 l 158 244 l 206 871 m 174 -12 q 123 10 142 -12 q 108 66 104 33 q 133 122 111 99 q 188 144 156 144 q 240 122 219 144 q 256 66 260 99 q 229 10 253 33 q 174 -12 206 -12 z "},"\"":{"ha":382,"x_min":108,"x_max":436,"o":"m 226 946 l 183 640 l 108 640 l 124 946 l 226 946 m 436 946 l 393 640 l 318 640 l 333 946 l 436 946 z "},"#":{"ha":783,"x_min":88,"x_max":792,"o":"m 496 236 l 304 236 l 268 43 l 176 43 l 213 236 l 88 236 l 101 311 l 226 311 l 274 558 l 147 558 l 161 632 l 288 632 l 324 824 l 417 824 l 381 632 l 572 632 l 608 824 l 700 824 l 664 632 l 792 632 l 778 558 l 650 558 l 603 311 l 731 311 l 717 236 l 589 236 l 553 43 l 460 43 l 496 236 m 319 311 l 511 311 l 558 558 l 367 558 l 319 311 z "},"$":{"ha":790,"x_min":99,"x_max":736,"o":"m 564 458 q 690 373 647 426 q 725 229 733 319 q 642 68 717 135 q 431 -14 561 -6 l 421 -126 l 343 -126 l 353 -12 q 171 67 238 -1 q 110 263 99 140 l 206 263 q 242 138 199 179 q 363 88 285 96 l 394 415 l 356 431 q 208 517 253 468 q 168 660 160 568 q 245 815 176 753 q 439 886 314 876 l 449 990 l 526 990 l 517 885 q 677 816 624 875 q 736 661 731 757 l 639 661 q 507 789 628 769 l 479 490 l 564 458 m 615 232 q 514 375 624 335 l 469 392 l 440 86 q 565 136 521 93 q 615 232 608 179 m 429 789 q 318 744 358 782 q 274 656 278 707 q 292 577 269 606 q 368 529 315 549 l 404 515 l 429 789 z "},"%":{"ha":907,"x_min":133,"x_max":858,"o":"m 428 835 q 449 809 428 835 q 460 686 469 782 q 399 540 451 590 q 282 490 346 490 q 175 540 214 490 q 142 690 133 593 q 203 838 151 788 q 321 889 256 889 q 428 835 386 889 m 381 689 q 367 785 388 754 q 311 815 347 815 q 250 785 275 815 q 218 689 225 754 q 231 594 211 624 q 288 565 251 565 q 349 594 324 565 q 381 689 374 624 m 750 874 l 853 874 l 242 0 l 140 0 l 750 874 m 708 383 q 815 333 776 383 q 850 183 858 279 q 788 35 842 89 q 669 -15 738 -15 q 564 35 603 -15 q 531 183 522 88 q 592 333 539 278 q 708 383 642 383 m 701 310 q 640 279 665 310 q 608 183 614 249 q 622 89 601 118 q 678 60 642 60 q 739 89 714 60 q 769 183 764 118 q 757 279 776 249 q 701 310 738 310 z "},"&":{"ha":1144,"x_min":122,"x_max":1104,"o":"m 951 486 q 779 178 875 292 l 828 126 q 869 92 850 103 q 918 81 888 81 q 975 106 949 81 q 1011 194 1001 132 l 1104 194 q 1042 40 1089 94 q 915 -15 994 -15 q 827 7 867 -15 q 743 78 788 29 l 714 108 q 418 -15 579 -15 q 203 58 288 -15 q 133 234 122 132 q 207 388 143 336 q 389 461 271 440 l 372 479 q 294 683 283 574 q 374 829 303 772 q 558 888 447 888 q 721 828 660 888 q 772 689 779 772 q 710 546 764 606 q 540 433 656 486 l 721 240 q 886 528 811 350 l 951 486 m 242 246 q 282 130 235 178 q 429 82 329 82 q 654 174 551 82 l 444 401 q 242 246 251 375 m 651 628 q 665 690 661 651 q 637 761 668 728 q 544 794 606 794 q 444 756 482 794 q 401 674 406 718 q 457 524 393 592 l 489 489 q 651 628 621 553 z "},"'":{"ha":169,"x_min":107,"x_max":225,"o":"m 225 940 l 182 635 l 107 635 l 122 940 l 225 940 z "},"(":{"ha":444,"x_min":115,"x_max":500,"o":"m 500 954 q 233 426 261 710 q 400 -101 208 140 l 324 -157 q 164 117 213 -33 q 131 427 115 267 q 222 737 146 588 q 433 1011 299 886 l 500 954 z "},")":{"ha":444,"x_min":25,"x_max":425,"o":"m 201 1011 q 393 426 425 760 q 301 117 378 267 q 92 -157 225 -33 l 25 -101 q 292 426 264 143 q 125 954 317 713 l 201 1011 z "},"*":{"ha":515,"x_min":143,"x_max":519,"o":"m 283 717 l 143 772 l 181 847 l 306 772 l 308 950 l 386 950 l 357 772 l 497 847 l 519 772 l 369 717 l 469 593 l 410 539 l 324 683 l 210 539 l 158 593 l 283 717 z "},"+":{"ha":658,"x_min":50,"x_max":672,"o":"m 443 682 l 415 388 l 672 388 l 664 294 l 406 294 l 379 0 l 281 0 l 307 294 l 50 294 l 58 388 l 317 388 l 343 682 l 443 682 z "},",":{"ha":263,"x_min":26,"x_max":229,"o":"m 131 -7 q 85 14 103 -4 q 69 63 67 32 q 94 114 72 93 q 152 135 117 135 q 208 103 188 135 q 224 25 229 72 q 187 -72 219 -22 q 96 -151 154 -121 l 26 -111 q 131 -7 111 -67 z "},"-":{"ha":436,"x_min":81,"x_max":431,"o":"m 90 451 l 431 451 l 421 357 l 81 357 l 90 451 z "},".":{"ha":224,"x_min":40,"x_max":193,"o":"m 110 -12 q 94 -12 110 -12 q 59 10 78 -12 q 43 66 40 33 q 68 122 46 99 q 123 144 90 144 q 174 122 156 144 q 190 66 193 99 q 165 10 188 33 q 110 -12 142 -12 z "},"/":{"ha":540,"x_min":61,"x_max":581,"o":"m 481 1015 l 581 1015 l 160 -101 l 61 -101 l 481 1015 z "},":":{"ha":289,"x_min":76,"x_max":269,"o":"m 146 32 q 130 32 146 32 q 95 55 114 32 q 79 110 76 78 q 104 166 82 143 q 159 189 126 189 q 210 166 192 189 q 226 110 229 143 q 201 55 224 78 q 146 32 178 32 m 186 457 q 170 457 186 457 q 135 480 154 457 q 119 535 117 503 q 144 591 122 568 q 199 614 167 614 q 251 591 232 614 q 267 535 269 568 q 241 480 264 503 q 186 457 218 457 z "},";":{"ha":328,"x_min":60,"x_max":301,"o":"m 164 -7 q 118 14 136 -4 q 103 63 100 32 q 128 114 106 93 q 185 135 150 135 q 242 103 221 135 q 258 25 263 72 q 220 -72 253 -22 q 129 -151 188 -121 l 60 -111 q 164 -7 144 -67 m 218 457 q 202 457 218 457 q 167 480 186 457 q 151 535 149 503 q 176 591 154 568 q 231 614 199 614 q 283 591 264 614 q 299 535 301 568 q 273 480 296 503 q 218 457 250 457 z "},"<":{"ha":568,"x_min":85,"x_max":576,"o":"m 576 711 l 189 424 l 522 140 l 450 56 l 85 376 l 93 472 l 519 794 l 576 711 z "},"=":{"ha":610,"x_min":114,"x_max":560,"o":"m 535 257 l 526 163 l 114 163 l 122 257 l 535 257 m 560 524 l 551 428 l 139 428 l 147 524 l 560 524 z "},">":{"ha":568,"x_min":71,"x_max":561,"o":"m 197 794 l 561 472 l 553 376 l 128 56 l 71 140 l 456 424 l 125 711 l 197 794 z "},"?":{"ha":624,"x_min":100,"x_max":636,"o":"m 383 789 q 206 661 238 789 l 100 661 q 192 826 118 764 q 392 889 265 889 q 575 822 510 889 q 628 660 636 757 q 583 539 621 588 q 469 447 546 490 q 381 383 399 406 q 344 278 350 343 l 339 224 l 242 224 l 247 286 q 286 421 256 376 q 393 508 319 467 q 482 572 460 547 q 521 664 515 610 q 490 753 526 718 q 383 789 454 789 m 283 142 q 335 118 315 142 q 351 62 354 94 q 324 7 349 29 q 268 -15 300 -15 q 219 7 236 -15 q 204 62 201 29 q 229 118 207 94 q 283 142 251 142 z "},"@":{"ha":1175,"x_min":101,"x_max":1165,"o":"m 756 401 q 747 490 763 461 q 693 518 731 518 q 622 501 656 518 q 558 454 588 485 q 481 281 489 383 q 503 167 472 207 q 585 126 533 126 q 672 159 636 126 q 743 254 707 192 l 756 401 m 308 726 q 348 764 308 726 q 495 846 389 803 q 715 889 601 889 q 914 851 829 889 q 1056 749 999 814 q 1139 597 1113 685 q 1156 417 1165 510 q 1118 256 1147 325 q 1047 139 1089 188 q 851 39 960 39 q 769 64 799 39 q 736 136 739 89 l 733 158 q 665 72 706 106 q 574 39 625 39 q 490 56 524 39 q 431 106 456 74 q 388 279 376 175 q 494 511 401 417 q 696 604 583 604 q 810 554 771 604 q 839 403 849 504 l 818 192 q 861 121 813 121 q 975 194 918 121 q 1054 411 1042 278 q 978 682 1068 576 q 713 790 886 790 q 369 647 514 790 q 214 304 233 510 q 313 -34 192 94 q 665 -162 433 -162 l 656 -251 q 415 -209 521 -251 q 238 -92 308 -167 q 134 87 167 -17 q 113 314 101 190 q 175 543 124 438 q 308 726 226 649 z "},"A":{"ha":718,"x_min":32,"x_max":686,"o":"m 385 874 l 506 874 l 686 0 l 583 0 l 538 222 l 225 222 l 136 0 l 32 0 l 385 874 m 258 308 l 519 308 l 431 740 l 258 308 z "},"B":{"ha":778,"x_min":126,"x_max":747,"o":"m 208 874 l 503 874 q 690 806 626 874 q 739 657 747 744 q 569 439 722 478 q 681 369 642 425 q 692 151 743 278 q 551 21 656 61 q 421 0 497 0 l 126 0 l 208 874 m 428 96 q 608 243 593 96 q 576 349 615 310 q 456 389 538 389 l 261 389 l 233 96 l 428 96 m 269 483 l 463 483 q 581 523 535 483 q 635 632 628 563 q 603 740 642 701 q 490 779 565 779 l 297 779 l 269 483 z "},"C":{"ha":767,"x_min":86,"x_max":768,"o":"m 472 889 q 540 889 472 889 q 678 819 608 889 q 768 636 749 749 l 658 613 q 592 742 642 694 q 472 790 543 790 q 303 703 375 790 q 211 442 228 608 q 308 110 189 189 q 406 83 349 83 q 560 138 500 83 q 628 283 619 193 l 733 283 q 628 64 719 144 q 396 -15 538 -15 q 163 111 242 -15 q 106 442 86 233 q 233 775 125 654 q 472 889 336 889 z "},"D":{"ha":826,"x_min":125,"x_max":808,"o":"m 439 874 q 713 754 617 874 q 789 438 808 635 q 653 119 769 239 q 356 0 535 0 l 125 0 l 207 874 l 439 874 m 232 96 l 365 96 q 583 193 494 96 q 683 438 669 288 q 629 681 697 588 q 429 776 558 776 l 296 776 l 232 96 z "},"E":{"ha":703,"x_min":125,"x_max":692,"o":"m 207 874 l 692 874 l 681 779 l 296 779 l 268 486 l 631 486 l 622 393 l 260 393 l 232 96 l 618 96 l 608 0 l 125 0 l 207 874 z "},"F":{"ha":656,"x_min":126,"x_max":686,"o":"m 208 874 l 686 874 l 676 779 l 297 779 l 269 489 l 622 489 l 614 394 l 261 394 l 225 0 l 126 0 l 208 874 z "},"G":{"ha":806,"x_min":85,"x_max":781,"o":"m 626 151 q 400 -15 560 -15 q 172 103 256 -15 q 104 426 85 228 q 247 769 122 642 q 517 888 360 888 q 781 713 704 888 l 682 676 q 503 789 610 789 q 311 692 394 789 q 208 426 225 593 q 250 181 194 276 q 417 85 306 85 q 563 147 501 85 q 640 340 625 210 l 642 349 l 642 351 l 444 360 l 451 432 l 744 432 l 706 0 l 625 0 l 626 151 z "},"H":{"ha":836,"x_min":126,"x_max":793,"o":"m 307 874 l 269 489 l 656 489 l 693 874 l 793 874 l 710 0 l 611 0 l 647 394 l 261 394 l 225 0 l 126 0 l 208 874 l 307 874 z "},"I":{"ha":350,"x_min":126,"x_max":307,"o":"m 208 874 l 307 874 l 225 0 l 126 0 l 208 874 z "},"J":{"ha":506,"x_min":14,"x_max":488,"o":"m 24 157 q 183 90 107 90 q 291 132 260 90 q 331 253 322 174 l 389 874 l 488 874 l 429 253 q 350 47 414 110 q 190 -15 286 -15 q 96 1 138 -15 q 14 43 54 18 l 24 157 z "},"K":{"ha":761,"x_min":126,"x_max":796,"o":"m 308 874 l 271 469 l 660 874 l 796 874 l 415 482 l 735 0 l 607 0 l 342 404 l 256 317 l 226 0 l 126 0 l 208 874 l 308 874 z "},"L":{"ha":585,"x_min":126,"x_max":583,"o":"m 233 96 l 583 96 l 575 0 l 126 0 l 208 874 l 307 874 l 233 96 z "},"M":{"ha":1060,"x_min":126,"x_max":1017,"o":"m 350 874 l 558 282 l 878 874 l 1017 874 l 933 0 l 835 0 l 901 717 l 575 110 l 508 110 l 293 729 l 225 0 l 126 0 l 208 874 l 350 874 z "},"N":{"ha":856,"x_min":124,"x_max":813,"o":"m 324 874 l 646 174 l 714 874 l 813 874 l 731 0 l 619 0 l 290 713 l 224 0 l 124 0 l 206 874 l 324 874 z "},"O":{"ha":807,"x_min":85,"x_max":806,"o":"m 488 889 q 721 775 640 889 q 786 436 806 658 q 656 96 765 214 q 401 -15 553 -15 q 169 97 247 -15 q 106 436 85 217 q 233 778 124 656 q 488 889 335 889 m 683 435 q 692 521 683 435 q 644 699 700 607 q 477 790 588 790 q 295 699 367 790 q 207 435 224 607 q 246 174 190 263 q 411 85 301 85 q 594 174 521 85 q 683 435 667 263 z "},"P":{"ha":693,"x_min":124,"x_max":713,"o":"m 460 874 q 651 801 590 874 q 701 604 713 728 q 614 409 689 481 q 408 338 539 338 l 254 338 l 222 0 l 124 0 l 206 874 l 460 874 m 418 432 q 545 478 499 432 q 599 603 592 524 q 568 731 606 683 q 450 779 531 779 l 294 779 l 263 432 l 418 432 z "},"Q":{"ha":815,"x_min":83,"x_max":806,"o":"m 611 -121 q 736 -86 664 -121 l 725 -206 q 617 -232 672 -232 q 446 -108 511 -232 l 396 -15 q 167 100 246 -12 q 106 436 83 218 q 233 778 124 656 q 488 889 335 889 q 721 775 640 889 q 786 436 806 658 q 688 137 767 244 q 497 -3 610 29 l 531 -64 q 611 -121 564 -118 m 683 435 q 692 521 683 435 q 644 699 700 607 q 477 790 588 790 q 295 699 367 790 q 207 435 224 607 q 246 174 190 263 q 411 85 301 85 q 594 174 521 85 q 683 435 667 263 z "},"R":{"ha":767,"x_min":126,"x_max":742,"o":"m 501 363 l 693 0 l 567 0 l 396 357 l 258 357 l 225 0 l 126 0 l 208 874 l 482 874 q 681 801 615 874 q 732 624 742 732 q 501 363 710 399 m 432 433 q 572 481 521 433 q 629 608 622 529 q 596 733 636 686 q 472 779 556 779 l 297 779 l 265 433 l 432 433 z "},"S":{"ha":756,"x_min":101,"x_max":704,"o":"m 460 889 q 642 827 581 889 q 704 661 703 765 l 607 661 q 565 756 604 722 q 448 789 525 789 q 325 751 371 789 q 274 659 279 713 q 293 578 269 606 q 374 529 317 550 l 531 467 q 656 379 613 435 q 692 232 700 324 q 600 56 683 125 q 375 -15 514 -15 q 179 56 253 -15 q 110 263 101 131 l 206 263 q 251 128 197 175 q 385 85 300 85 q 524 127 469 85 q 583 227 578 169 q 562 318 589 285 q 476 374 535 351 l 343 431 q 203 517 249 467 q 167 658 158 567 q 342 872 185 819 q 460 889 394 889 z "},"T":{"ha":626,"x_min":81,"x_max":701,"o":"m 90 874 l 701 874 l 692 779 l 435 779 l 363 0 l 264 0 l 336 779 l 81 779 l 90 874 z "},"U":{"ha":818,"x_min":122,"x_max":789,"o":"m 290 874 l 236 315 q 274 139 225 193 q 415 85 324 85 q 565 139 506 85 q 636 315 625 193 l 690 874 l 789 874 l 735 315 q 631 68 719 151 q 405 -15 542 -15 q 195 68 268 -15 q 138 315 122 151 l 192 874 l 290 874 z "},"V":{"ha":704,"x_min":106,"x_max":764,"o":"m 208 874 l 364 136 l 660 874 l 764 874 l 403 0 l 300 0 l 106 874 l 208 874 z "},"W":{"ha":1118,"x_min":100,"x_max":1182,"o":"m 210 874 l 332 149 l 586 783 l 653 783 l 783 146 l 1074 874 l 1182 874 l 822 0 l 718 0 l 600 558 l 369 0 l 267 0 l 100 874 l 210 874 z "},"X":{"ha":803,"x_min":60,"x_max":811,"o":"m 742 0 l 618 0 l 424 349 l 181 0 l 60 0 l 378 433 l 142 874 l 260 874 l 451 517 l 693 874 l 811 874 l 497 435 l 742 0 z "},"Y":{"ha":686,"x_min":94,"x_max":756,"o":"m 213 874 l 386 472 l 640 874 l 756 874 l 425 358 l 392 0 l 292 0 l 325 358 l 94 874 l 213 874 z "},"Z":{"ha":740,"x_min":92,"x_max":751,"o":"m 100 99 l 618 769 l 164 774 l 174 874 l 751 874 l 742 775 l 224 104 l 678 100 l 668 0 l 92 0 l 100 99 z "},"[":{"ha":396,"x_min":113,"x_max":468,"o":"m 221 1015 l 468 1015 l 460 918 l 311 918 l 219 -44 l 368 -44 l 360 -142 l 113 -142 l 221 1015 z "},"\\":{"ha":540,"x_min":132,"x_max":651,"o":"m 132 1015 l 231 1015 l 651 -101 l 551 -101 l 132 1015 z "},"]":{"ha":439,"x_min":28,"x_max":383,"o":"m 275 -142 l 28 -142 l 36 -44 l 185 -44 l 276 918 l 128 918 l 136 1015 l 383 1015 l 275 -142 z "},"^":{"ha":560,"x_min":57,"x_max":574,"o":"m 57 340 l 322 814 l 399 814 l 574 340 l 464 340 l 347 683 l 168 340 l 57 340 z "},"_":{"ha":907,"x_min":53,"x_max":831,"o":"m 61 -78 l 831 -78 l 822 -172 l 53 -172 l 61 -78 z "},"`":{"ha":393,"x_min":133,"x_max":460,"o":"m 183 1194 l 460 1010 l 425 940 l 133 1097 l 183 1194 z "},"a":{"ha":700,"x_min":104,"x_max":639,"o":"m 536 431 q 515 560 544 521 q 421 599 485 599 q 315 571 357 599 q 267 481 272 543 l 157 481 q 242 635 168 589 q 422 681 315 681 q 626 542 590 681 q 633 428 639 494 l 593 0 l 510 0 l 510 111 q 297 -15 442 -15 q 154 39 208 -15 q 104 154 104 89 q 124 260 104 219 q 178 328 144 300 q 346 382 247 382 q 528 346 444 382 l 536 431 m 521 276 q 366 304 435 304 q 253 273 297 304 q 210 171 210 242 q 235 98 210 126 q 326 69 261 69 q 453 121 397 69 q 519 264 514 176 l 521 276 z "},"b":{"ha":731,"x_min":126,"x_max":701,"o":"m 276 564 q 471 681 347 681 q 633 600 568 681 q 701 383 701 518 q 626 119 701 236 q 532 23 589 61 q 407 -15 475 -15 q 228 117 269 -15 l 194 0 l 126 0 l 215 946 l 314 946 l 276 564 m 250 283 q 289 133 242 192 q 390 82 331 82 q 488 110 450 82 q 551 183 526 139 q 600 372 600 268 q 556 529 600 475 q 443 583 511 583 q 322 531 375 583 q 258 376 267 472 l 250 283 z "},"c":{"ha":643,"x_min":79,"x_max":618,"o":"m 397 681 q 489 663 450 681 q 556 617 528 646 q 618 469 610 558 l 518 460 q 474 551 507 518 q 399 583 442 583 q 323 567 356 583 q 264 519 290 551 q 194 333 204 450 q 226 151 183 219 q 340 82 268 82 q 450 119 411 82 q 494 224 489 156 l 596 224 q 514 53 588 119 q 332 -15 442 -15 q 151 78 221 -15 q 93 333 79 176 q 200 590 110 493 q 397 681 285 681 z "},"d":{"ha":743,"x_min":103,"x_max":704,"o":"m 532 111 q 339 -15 461 -15 q 169 67 235 -15 q 103 286 103 151 q 178 547 103 433 q 392 681 264 681 q 569 567 521 681 l 606 946 l 704 946 l 615 0 l 535 0 l 532 111 m 396 583 q 316 555 354 583 q 253 483 278 526 q 206 297 206 400 q 249 138 206 194 q 360 82 293 82 q 475 133 424 82 q 543 286 532 190 l 553 383 q 515 535 561 481 q 396 583 475 583 z "},"e":{"ha":643,"x_min":76,"x_max":632,"o":"m 339 74 q 492 194 461 74 l 593 194 q 499 40 569 94 q 331 -15 428 -15 q 146 78 211 -15 q 93 331 76 175 q 194 586 110 492 q 396 681 278 681 q 582 568 528 681 q 599 308 632 467 l 189 308 q 267 92 175 146 q 339 74 296 74 m 458 576 q 390 593 431 593 q 318 577 350 593 q 261 533 286 561 q 199 392 213 478 l 518 392 q 458 576 533 531 z "},"f":{"ha":429,"x_min":117,"x_max":522,"o":"m 124 664 l 221 664 l 231 765 q 294 911 240 865 q 410 957 347 957 q 522 939 472 957 l 496 853 q 433 871 457 871 q 393 866 408 871 q 364 850 378 861 q 329 764 335 822 l 319 664 l 443 664 l 436 589 l 313 589 l 257 0 l 160 0 l 214 589 l 117 589 l 124 664 z "},"g":{"ha":706,"x_min":14,"x_max":751,"o":"m 565 631 q 629 749 581 704 q 751 793 678 793 l 731 685 q 607 583 621 685 q 639 453 646 521 q 609 340 632 385 q 550 261 586 294 q 371 194 475 194 q 249 226 300 194 q 201 201 222 221 q 175 147 179 181 q 279 72 168 72 l 511 72 q 640 33 594 72 q 679 -78 686 -7 q 569 -260 671 -182 q 306 -342 464 -342 q 92 -281 171 -342 q 22 -129 14 -219 q 63 -32 26 -69 q 153 21 99 6 q 101 72 118 40 q 89 145 85 103 q 126 220 93 188 q 203 264 158 253 q 153 439 142 333 q 239 614 164 547 q 410 681 314 681 q 565 631 507 681 m 119 -125 q 164 -216 115 -178 q 313 -254 213 -254 q 500 -203 422 -254 q 581 -85 572 -154 q 565 -30 583 -53 q 504 -7 546 -7 l 261 -7 q 162 -41 197 -10 q 119 -125 126 -72 m 542 440 q 545 475 542 440 q 514 556 549 511 q 410 601 479 601 q 299 556 342 601 q 250 439 257 511 q 278 320 243 367 q 380 274 313 274 q 491 321 447 274 q 542 440 535 368 z "},"h":{"ha":756,"x_min":126,"x_max":699,"o":"m 275 542 q 488 681 350 681 q 647 603 594 681 q 685 390 699 525 l 649 0 l 551 0 l 588 390 q 561 535 597 486 q 449 583 525 583 q 319 512 372 583 q 254 314 265 440 l 225 0 l 126 0 l 215 946 l 314 946 l 275 542 z "},"i":{"ha":374,"x_min":132,"x_max":333,"o":"m 194 665 l 293 665 l 231 0 l 132 0 l 194 665 m 258 821 q 243 821 258 821 q 213 840 228 821 q 201 890 199 858 q 222 940 204 921 q 271 958 240 958 q 317 940 301 958 q 331 890 333 921 q 308 840 328 858 q 258 821 289 821 z "},"j":{"ha":393,"x_min":-133,"x_max":353,"o":"m 278 821 q 232 840 247 821 q 219 890 217 858 q 241 940 222 921 q 290 958 260 958 q 337 940 321 958 q 350 890 353 921 q 328 840 347 858 q 278 821 308 821 m -119 -194 q 12 -246 -47 -246 q 102 -209 71 -246 q 142 -93 133 -172 l 214 667 l 313 667 l 240 -93 q 170 -284 228 -226 q 28 -342 113 -342 q -133 -290 -50 -342 l -119 -194 z "},"k":{"ha":706,"x_min":126,"x_max":714,"o":"m 338 351 l 251 279 l 225 0 l 126 0 l 215 946 l 314 946 l 263 397 l 576 664 l 714 664 l 415 415 l 665 0 l 543 0 l 338 351 z "},"l":{"ha":350,"x_min":126,"x_max":314,"o":"m 215 946 l 314 946 l 225 0 l 126 0 l 215 946 z "},"m":{"ha":1168,"x_min":125,"x_max":1113,"o":"m 271 535 q 486 681 346 681 q 613 638 564 681 q 678 521 661 596 q 901 681 749 681 q 1060 603 1008 681 q 1099 390 1113 525 l 1063 0 l 965 0 l 1001 390 q 975 535 1011 486 q 863 583 939 583 q 738 514 786 583 q 678 322 689 444 l 676 322 l 647 0 l 550 0 l 586 390 q 560 535 596 486 q 447 583 524 583 q 317 512 371 583 q 253 314 264 440 l 224 0 l 125 0 l 188 664 l 272 664 l 271 535 z "},"n":{"ha":754,"x_min":125,"x_max":697,"o":"m 271 535 q 486 681 346 681 q 645 603 593 681 q 683 390 697 525 l 647 0 l 550 0 l 586 390 q 560 535 596 486 q 447 583 524 583 q 317 512 371 583 q 253 314 264 440 l 224 0 l 125 0 l 188 664 l 272 664 l 271 535 z "},"o":{"ha":682,"x_min":76,"x_max":668,"o":"m 406 681 q 515 658 465 681 q 597 592 564 636 q 651 332 668 497 q 547 72 635 165 q 339 -15 464 -15 q 147 72 214 -15 q 93 332 76 165 q 197 592 110 499 q 406 681 279 681 m 399 586 q 258 519 311 586 q 194 333 206 451 q 220 147 183 214 q 344 79 257 79 q 486 147 432 79 q 551 333 540 214 q 524 519 563 451 q 399 586 486 586 z "},"p":{"ha":743,"x_min":94,"x_max":713,"o":"m 271 563 q 465 681 344 681 q 642 589 574 681 q 699 333 713 490 q 592 78 682 175 q 393 -15 507 -15 q 232 81 279 -15 l 193 -326 l 94 -326 l 189 664 l 269 664 l 271 563 m 250 269 q 286 131 242 183 q 393 82 326 82 q 522 146 467 82 q 596 333 583 214 q 563 517 608 451 q 443 583 518 583 q 324 533 374 583 q 261 386 269 479 l 260 386 l 249 269 l 250 269 z "},"q":{"ha":731,"x_min":78,"x_max":669,"o":"m 515 107 q 331 -15 454 -15 q 151 78 219 -15 q 94 333 78 176 q 200 589 111 492 q 393 681 285 681 q 499 649 454 681 q 567 554 544 617 l 599 664 l 667 664 l 593 -112 q 598 -203 585 -181 q 628 -237 611 -226 q 669 -257 644 -247 l 631 -342 q 515 -261 546 -317 q 496 -106 485 -206 l 515 107 m 394 583 q 327 567 361 583 q 267 517 293 550 q 196 333 207 446 q 233 146 186 218 q 351 82 278 82 q 468 131 419 82 q 531 269 522 183 l 544 407 q 500 539 544 490 q 394 583 461 583 z "},"r":{"ha":476,"x_min":125,"x_max":514,"o":"m 499 557 q 424 571 460 571 q 304 498 344 571 q 251 300 264 425 l 221 300 q 274 539 235 450 l 224 0 l 125 0 l 188 665 l 286 665 l 274 539 q 446 676 333 676 q 514 664 482 676 l 499 557 z "},"s":{"ha":657,"x_min":88,"x_max":611,"o":"m 142 501 q 218 632 150 583 q 393 681 286 681 q 556 631 500 681 q 607 504 611 581 l 511 504 q 381 594 507 594 q 284 564 319 594 q 245 498 249 533 q 265 438 242 463 q 340 396 288 414 l 456 351 q 567 284 531 325 q 597 178 604 243 q 519 44 589 99 q 327 -15 444 -15 q 149 44 210 -15 q 93 196 88 103 l 188 196 q 225 102 185 133 q 331 71 265 71 q 441 101 397 71 q 489 174 485 132 q 470 239 493 217 q 393 278 447 261 l 281 321 q 142 501 129 371 z "},"t":{"ha":469,"x_min":96,"x_max":486,"o":"m 440 19 q 301 -15 368 -15 q 190 31 235 -15 q 156 172 146 76 l 193 581 l 96 581 l 106 664 l 200 664 l 218 849 l 317 849 l 299 664 l 486 664 l 478 581 l 290 581 l 253 174 q 266 97 246 122 q 329 72 286 72 q 433 97 372 72 l 440 19 z "},"u":{"ha":757,"x_min":119,"x_max":693,"o":"m 544 132 q 332 -12 471 -12 q 175 50 231 -12 q 131 243 119 113 l 171 665 l 269 665 l 231 251 q 356 83 214 83 q 497 156 439 83 q 564 342 553 226 l 594 665 l 693 665 l 631 0 l 532 0 l 544 132 z "},"v":{"ha":629,"x_min":85,"x_max":668,"o":"m 196 664 l 325 115 l 557 664 l 668 664 l 368 0 l 260 0 l 85 664 l 196 664 z "},"w":{"ha":906,"x_min":85,"x_max":943,"o":"m 188 664 l 283 136 l 471 632 l 554 632 l 649 129 l 844 664 l 943 664 l 685 0 l 589 0 l 494 465 l 317 0 l 221 0 l 85 664 l 188 664 z "},"x":{"ha":640,"x_min":32,"x_max":669,"o":"m 606 0 l 486 0 l 339 251 l 153 0 l 32 0 l 290 332 l 94 665 l 215 665 l 363 415 l 550 665 l 669 665 l 410 332 l 606 0 z "},"y":{"ha":606,"x_min":-21,"x_max":636,"o":"m -11 -193 q 111 -246 44 -246 q 261 -68 201 -246 l 286 0 l 104 664 l 214 664 l 344 136 l 536 664 l 636 664 l 338 -132 q 247 -287 299 -233 q 122 -342 194 -342 q -21 -293 50 -342 l -11 -193 z "},"z":{"ha":593,"x_min":67,"x_max":592,"o":"m 74 89 l 471 575 l 119 575 l 129 664 l 592 664 l 582 575 l 190 89 l 536 89 l 529 0 l 67 0 l 74 89 z "},"{":{"ha":436,"x_min":129,"x_max":524,"o":"m 407 -192 q 210 -100 269 -192 q 172 133 157 -19 l 183 261 q 150 371 196 371 l 129 371 l 139 476 l 160 476 q 196 501 183 476 q 215 586 208 525 l 226 713 q 397 1014 250 946 q 524 1039 450 1039 l 515 943 q 379 884 424 943 q 324 711 335 825 l 313 583 q 232 426 300 464 l 231 421 q 281 264 293 386 l 269 135 q 291 -37 258 22 q 417 -96 324 -96 l 407 -192 z "},"|":{"ha":350,"x_min":110,"x_max":322,"o":"m 224 1042 l 322 1042 l 208 -169 l 110 -169 l 224 1042 z "},"}":{"ha":443,"x_min":-7,"x_max":388,"o":"m 110 1039 q 344 714 369 1039 l 333 586 q 335 501 328 526 q 367 476 343 476 l 388 476 l 378 371 l 357 371 q 320 347 333 371 q 301 261 307 322 l 290 135 q 119 -167 267 -100 q -7 -192 65 -192 l 1 -96 q 138 -37 93 -96 q 193 136 183 22 l 204 264 q 285 421 217 383 l 286 426 q 236 583 225 460 l 247 713 q 226 884 258 825 q 100 943 193 943 l 110 1039 z "},"~":{"ha":643,"x_min":97,"x_max":619,"o":"m 233 392 q 150 310 186 392 l 97 342 q 246 496 154 496 q 352 465 288 496 q 440 427 417 435 q 481 419 463 419 q 569 499 531 419 l 619 461 q 465 314 563 314 q 366 344 436 314 q 274 383 296 375 q 233 392 251 392 z "},"£":{"ha":706,"x_min":25,"x_max":681,"o":"m 33 96 l 68 96 q 171 221 161 96 l 185 371 l 72 371 l 79 449 l 193 449 l 207 600 q 286 813 221 738 q 465 889 351 889 q 604 836 553 889 q 660 681 656 783 l 564 681 q 529 762 558 735 q 447 789 500 789 q 354 744 393 789 q 306 600 315 700 l 290 449 l 518 449 l 511 371 l 283 371 l 269 226 q 210 96 258 129 l 440 96 q 532 124 501 96 q 576 214 563 153 l 681 214 q 608 57 663 107 q 431 0 547 0 l 25 0 l 33 96 z "},"¨":{"ha":404,"x_min":136,"x_max":483,"o":"m 197 1082 q 182 1082 197 1082 q 152 1102 168 1082 q 139 1151 136 1122 q 162 1201 142 1181 q 210 1221 182 1221 q 256 1201 239 1221 q 271 1151 274 1181 q 247 1102 268 1122 q 197 1082 225 1082 m 406 1082 q 392 1082 406 1082 q 362 1102 378 1082 q 349 1151 346 1122 q 372 1201 351 1181 q 420 1221 392 1221 q 466 1201 449 1221 q 481 1151 483 1181 q 456 1102 478 1122 q 406 1082 435 1082 z "},"´":{"ha":393,"x_min":124,"x_max":467,"o":"m 467 1097 l 146 940 l 124 1010 l 435 1194 l 467 1097 z "},"À":{"ha":718,"x_min":32,"x_max":686,"o":"m 385 874 l 506 874 l 686 0 l 583 0 l 538 222 l 225 222 l 136 0 l 32 0 l 385 874 m 258 308 l 519 308 l 431 740 l 258 308 m 350 1194 l 626 1010 l 592 940 l 300 1097 l 350 1194 z "},"Á":{"ha":718,"x_min":32,"x_max":686,"o":"m 385 874 l 506 874 l 686 0 l 583 0 l 538 222 l 225 222 l 136 0 l 32 0 l 385 874 m 258 308 l 519 308 l 431 740 l 258 308 m 633 1097 l 313 940 l 290 1010 l 601 1194 l 633 1097 z "},"Â":{"ha":718,"x_min":32,"x_max":686,"o":"m 385 874 l 506 874 l 686 0 l 583 0 l 538 222 l 225 222 l 136 0 l 32 0 l 385 874 m 258 308 l 519 308 l 431 740 l 258 308 m 679 994 l 613 940 l 464 1090 l 288 940 l 231 994 l 475 1211 l 679 994 z "},"Ã":{"ha":718,"x_min":32,"x_max":686,"o":"m 385 874 l 506 874 l 686 0 l 583 0 l 538 222 l 225 222 l 136 0 l 32 0 l 385 874 m 258 308 l 519 308 l 431 740 l 258 308 m 376 1069 q 299 999 335 1069 l 261 1025 q 386 1169 306 1169 q 452 1146 413 1169 q 504 1115 492 1122 q 525 1104 517 1108 q 554 1097 539 1097 q 626 1169 594 1097 l 667 1138 q 613 1035 647 1071 q 553 999 579 999 q 507 1007 526 999 q 451 1036 488 1015 q 376 1069 397 1069 z "},"Ä":{"ha":718,"x_min":32,"x_max":686,"o":"m 385 874 l 506 874 l 686 0 l 583 0 l 538 222 l 225 222 l 136 0 l 32 0 l 385 874 m 258 308 l 519 308 l 431 740 l 258 308 m 377 1021 q 363 1021 377 1021 q 333 1041 349 1021 q 319 1090 317 1061 q 342 1140 322 1119 q 391 1160 363 1160 q 437 1140 419 1160 q 451 1090 454 1119 q 427 1041 449 1061 q 377 1021 406 1021 m 587 1021 q 573 1021 587 1021 q 542 1041 558 1021 q 529 1090 526 1061 q 552 1140 532 1119 q 601 1160 572 1160 q 647 1140 629 1160 q 661 1090 664 1119 q 637 1041 658 1061 q 587 1021 615 1021 z "},"È":{"ha":706,"x_min":125,"x_max":692,"o":"m 207 874 l 692 874 l 681 779 l 296 779 l 268 486 l 631 486 l 622 393 l 260 393 l 232 96 l 618 96 l 608 0 l 125 0 l 207 874 m 354 1194 l 631 1010 l 596 940 l 304 1097 l 354 1194 z "},"É":{"ha":706,"x_min":125,"x_max":692,"o":"m 125 0 l 207 874 l 692 874 l 681 779 l 296 779 l 268 486 l 631 486 l 622 393 l 260 393 l 232 96 l 618 96 l 608 0 l 125 0 m 638 1097 l 317 940 l 294 1010 l 606 1194 l 638 1097 z "},"Ê":{"ha":706,"x_min":131,"x_max":697,"o":"m 213 874 l 697 874 l 686 779 l 301 779 l 274 486 l 636 486 l 628 393 l 265 393 l 238 96 l 624 96 l 614 0 l 131 0 l 213 874 m 692 994 l 625 940 l 476 1090 l 300 940 l 243 994 l 488 1211 l 692 994 z "},"Ë":{"ha":706,"x_min":125,"x_max":692,"o":"m 207 874 l 692 874 l 681 779 l 296 779 l 268 486 l 631 486 l 622 393 l 260 393 l 232 96 l 618 96 l 608 0 l 125 0 l 207 874 m 358 1021 q 343 1021 358 1021 q 313 1041 329 1021 q 300 1090 297 1061 q 323 1140 303 1119 q 372 1160 343 1160 q 417 1140 400 1160 q 432 1090 435 1119 q 408 1041 429 1061 q 358 1021 386 1021 m 567 1021 q 553 1021 567 1021 q 523 1041 539 1021 q 510 1090 507 1061 q 533 1140 513 1119 q 581 1160 553 1160 q 627 1140 610 1160 q 642 1090 644 1119 q 617 1041 639 1061 q 567 1021 596 1021 z "},"Ì":{"ha":350,"x_min":113,"x_max":439,"o":"m 208 874 l 307 874 l 225 0 l 126 0 l 208 874 m 163 1194 l 439 1010 l 404 940 l 113 1097 l 163 1194 z "},"Í":{"ha":350,"x_min":103,"x_max":446,"o":"m 126 0 l 208 874 l 307 874 l 225 0 l 126 0 m 446 1097 l 125 940 l 103 1010 l 414 1194 l 446 1097 z "},"Î":{"ha":350,"x_min":44,"x_max":493,"o":"m 208 874 l 307 874 l 225 0 l 126 0 l 208 874 m 493 994 l 426 940 l 278 1090 l 101 940 l 44 994 l 289 1211 l 493 994 z "},"Ï":{"ha":350,"x_min":106,"x_max":453,"o":"m 208 874 l 307 874 l 225 0 l 126 0 l 208 874 m 166 1021 q 152 1021 166 1021 q 122 1041 138 1021 q 108 1090 106 1061 q 131 1140 111 1119 q 180 1160 151 1160 q 226 1140 208 1160 q 240 1090 243 1119 q 216 1041 238 1061 q 166 1021 194 1021 m 376 1021 q 361 1021 376 1021 q 331 1041 347 1021 q 318 1090 315 1061 q 341 1140 321 1119 q 390 1160 361 1160 q 435 1140 418 1160 q 450 1090 453 1119 q 426 1041 447 1061 q 376 1021 404 1021 z "},"Ñ":{"ha":857,"x_min":124,"x_max":813,"o":"m 206 874 l 324 874 l 646 174 l 714 874 l 813 874 l 731 0 l 619 0 l 290 713 l 224 0 l 124 0 l 206 874 m 443 1069 q 365 999 401 1069 l 328 1025 q 453 1169 372 1169 q 519 1146 479 1169 q 571 1115 558 1122 q 592 1104 583 1108 q 621 1097 606 1097 q 693 1169 661 1097 l 733 1138 q 680 1035 714 1071 q 619 999 646 999 q 574 1007 593 999 q 518 1036 554 1015 q 443 1069 464 1069 z "},"Ò":{"ha":807,"x_min":85,"x_max":806,"o":"m 488 889 q 721 775 640 889 q 786 436 806 658 q 656 96 765 214 q 401 -15 553 -15 q 169 97 247 -15 q 106 436 85 217 q 233 778 124 656 q 488 889 335 889 m 683 435 q 692 521 683 435 q 644 699 700 607 q 477 790 588 790 q 295 699 367 790 q 207 435 224 607 q 246 174 190 263 q 411 85 301 85 q 594 174 521 85 q 683 435 667 263 m 390 1194 l 667 1010 l 632 940 l 340 1097 l 390 1194 z "},"Ó":{"ha":807,"x_min":85,"x_max":806,"o":"m 488 889 q 721 775 640 889 q 786 436 806 658 q 656 96 765 214 q 401 -15 553 -15 q 169 97 247 -15 q 106 436 85 217 q 233 778 124 656 q 488 889 335 889 m 477 790 q 422 790 477 790 q 295 699 367 790 q 207 435 224 607 q 246 174 190 263 q 411 85 301 85 q 594 174 521 85 q 683 435 667 263 q 644 699 700 607 q 477 790 588 790 m 674 1097 l 353 940 l 331 1010 l 642 1194 l 674 1097 z "},"Ô":{"ha":807,"x_min":85,"x_max":806,"o":"m 488 889 q 721 775 640 889 q 786 436 806 658 q 656 96 765 214 q 401 -15 553 -15 q 169 97 247 -15 q 106 436 85 217 q 233 778 124 656 q 488 889 335 889 m 683 435 q 692 521 683 435 q 644 699 700 607 q 477 790 588 790 q 295 699 367 790 q 207 435 224 607 q 246 174 190 263 q 411 85 301 85 q 594 174 521 85 q 683 435 667 263 m 721 994 l 654 940 l 506 1090 l 329 940 l 272 994 l 517 1211 l 721 994 z "},"Õ":{"ha":807,"x_min":85,"x_max":806,"o":"m 488 889 q 721 775 640 889 q 786 436 806 658 q 656 96 765 214 q 401 -15 553 -15 q 169 97 247 -15 q 106 436 85 217 q 233 778 124 656 q 488 889 335 889 m 477 790 q 422 790 477 790 q 295 699 367 790 q 207 435 224 607 q 246 174 190 263 q 411 85 301 85 q 594 174 521 85 q 683 435 667 263 q 644 699 700 607 q 477 790 588 790 m 418 1069 q 340 999 376 1069 l 303 1025 q 428 1169 347 1169 q 494 1146 454 1169 q 546 1115 533 1122 q 567 1104 558 1108 q 596 1097 581 1097 q 668 1169 636 1097 l 708 1138 q 655 1035 689 1071 q 594 999 621 999 q 549 1007 568 999 q 493 1036 529 1015 q 418 1069 439 1069 z "},"Ö":{"ha":807,"x_min":85,"x_max":806,"o":"m 488 889 q 721 775 640 889 q 786 436 806 658 q 656 96 765 214 q 401 -15 553 -15 q 169 97 247 -15 q 106 436 85 217 q 233 778 124 656 q 488 889 335 889 m 683 435 q 692 521 683 435 q 644 699 700 607 q 477 790 588 790 q 295 699 367 790 q 207 435 224 607 q 246 174 190 263 q 411 85 301 85 q 594 174 521 85 q 683 435 667 263 m 392 1021 q 378 1021 392 1021 q 348 1041 364 1021 q 335 1090 332 1061 q 358 1140 338 1119 q 406 1160 378 1160 q 452 1140 435 1160 q 467 1090 469 1119 q 442 1041 464 1061 q 392 1021 421 1021 m 602 1021 q 588 1021 602 1021 q 558 1041 574 1021 q 544 1090 542 1061 q 567 1140 547 1119 q 616 1160 588 1160 q 662 1140 644 1160 q 676 1090 679 1119 q 652 1041 674 1061 q 602 1021 631 1021 z "},"Ù":{"ha":818,"x_min":122,"x_max":789,"o":"m 290 874 l 236 315 q 274 139 225 193 q 415 85 324 85 q 565 139 506 85 q 636 315 625 193 l 690 874 l 789 874 l 735 315 q 631 68 719 151 q 405 -15 542 -15 q 195 68 268 -15 q 138 315 122 151 l 192 874 l 290 874 m 394 1194 l 671 1010 l 636 940 l 344 1097 l 394 1194 z "},"Ú":{"ha":818,"x_min":122,"x_max":789,"o":"m 192 874 l 290 874 l 236 315 q 274 139 225 193 q 415 85 324 85 q 565 139 506 85 q 636 315 625 193 l 690 874 l 789 874 l 735 315 q 631 68 719 151 q 405 -15 542 -15 q 195 68 268 -15 q 138 315 122 151 l 192 874 m 678 1097 l 357 940 l 335 1010 l 646 1194 l 678 1097 z "},"Û":{"ha":818,"x_min":122,"x_max":789,"o":"m 290 874 l 236 315 q 274 139 225 193 q 415 85 324 85 q 565 139 506 85 q 636 315 625 193 l 690 874 l 789 874 l 735 315 q 631 68 719 151 q 405 -15 542 -15 q 195 68 268 -15 q 138 315 122 151 l 192 874 l 290 874 m 725 994 l 658 940 l 510 1090 l 333 940 l 276 994 l 521 1211 l 725 994 z "},"Ü":{"ha":818,"x_min":122,"x_max":789,"o":"m 290 874 l 236 315 q 274 139 225 193 q 415 85 324 85 q 565 139 506 85 q 636 315 625 193 l 690 874 l 789 874 l 735 315 q 631 68 719 151 q 405 -15 542 -15 q 195 68 268 -15 q 138 315 122 151 l 192 874 l 290 874 m 397 1021 q 382 1021 397 1021 q 352 1041 368 1021 q 339 1090 336 1061 q 362 1140 342 1119 q 410 1160 382 1160 q 456 1140 439 1160 q 471 1090 474 1119 q 447 1041 468 1061 q 397 1021 425 1021 m 606 1021 q 592 1021 606 1021 q 562 1041 578 1021 q 549 1090 546 1061 q 572 1140 551 1119 q 620 1160 592 1160 q 666 1140 649 1160 q 681 1090 683 1119 q 656 1041 678 1061 q 606 1021 635 1021 z "},"à":{"ha":689,"x_min":85,"x_max":626,"o":"m 524 431 q 502 560 532 521 q 408 599 472 599 q 302 571 344 599 q 254 481 260 543 l 144 481 q 229 635 156 589 q 410 681 303 681 q 614 542 578 681 q 621 428 626 494 l 581 0 l 496 0 l 497 111 q 285 -15 429 -15 q 135 47 189 -15 q 93 186 85 104 q 174 333 101 281 q 335 382 239 382 q 515 346 432 382 l 524 431 m 508 276 q 356 304 422 304 q 247 278 290 304 q 199 195 204 253 q 219 103 193 138 q 313 69 244 69 q 437 120 382 69 q 507 257 492 171 l 507 261 l 508 276 m 322 1015 l 599 831 l 564 761 l 272 918 l 322 1015 z "},"á":{"ha":689,"x_min":85,"x_max":626,"o":"m 524 431 q 502 560 532 521 q 408 599 472 599 q 302 571 344 599 q 254 481 260 543 l 144 481 q 229 635 156 589 q 410 681 303 681 q 614 542 578 681 q 621 428 626 494 l 581 0 l 496 0 l 497 111 q 285 -15 429 -15 q 135 47 189 -15 q 93 186 85 104 q 174 333 101 281 q 335 382 239 382 q 515 346 432 382 l 524 431 m 508 276 q 356 304 422 304 q 247 278 290 304 q 199 195 204 253 q 219 103 193 138 q 313 69 244 69 q 437 120 382 69 q 507 257 492 171 l 507 261 l 508 276 m 606 918 l 285 761 l 263 831 l 574 1015 l 606 918 z "},"â":{"ha":689,"x_min":85,"x_max":653,"o":"m 524 431 q 502 560 532 521 q 408 599 472 599 q 302 571 344 599 q 254 481 260 543 l 144 481 q 229 635 156 589 q 410 681 303 681 q 614 542 578 681 q 621 428 626 494 l 581 0 l 496 0 l 497 111 q 285 -15 429 -15 q 135 47 189 -15 q 93 186 85 104 q 174 333 101 281 q 335 382 239 382 q 515 346 432 382 l 524 431 m 508 276 q 356 304 422 304 q 247 278 290 304 q 199 195 204 253 q 219 103 193 138 q 314 69 244 69 q 439 121 385 69 q 507 261 493 175 l 508 276 m 653 815 l 586 761 l 438 911 l 261 761 l 204 815 l 449 1032 l 653 815 z "},"ã":{"ha":689,"x_min":85,"x_max":639,"o":"m 524 431 q 502 560 532 521 q 408 599 472 599 q 302 571 344 599 q 254 481 260 543 l 144 481 q 229 635 156 589 q 410 681 303 681 q 614 542 578 681 q 621 428 626 494 l 581 0 l 496 0 l 497 111 q 285 -15 429 -15 q 135 47 189 -15 q 93 186 85 104 q 174 333 101 281 q 335 382 239 382 q 515 346 432 382 l 524 431 m 508 276 q 356 304 422 304 q 247 278 290 304 q 199 195 204 253 q 219 103 193 138 q 313 69 244 69 q 437 120 382 69 q 507 257 492 171 l 507 261 l 508 276 m 349 890 q 271 819 307 890 l 233 846 q 358 990 278 990 q 424 967 385 990 q 476 936 464 943 q 497 925 489 929 q 526 918 511 918 q 599 990 567 918 l 639 958 q 585 856 619 892 q 525 819 551 819 q 479 828 499 819 q 424 858 460 836 q 349 890 369 890 z "},"ä":{"ha":689,"x_min":85,"x_max":626,"o":"m 524 431 q 502 560 532 521 q 408 599 472 599 q 302 571 344 599 q 254 481 260 543 l 144 481 q 229 635 156 589 q 410 681 303 681 q 614 542 578 681 q 621 428 626 494 l 581 0 l 496 0 l 497 111 q 285 -15 429 -15 q 135 47 189 -15 q 93 186 85 104 q 174 333 101 281 q 335 382 239 382 q 515 346 432 382 l 524 431 m 508 276 q 356 304 422 304 q 247 278 290 304 q 199 195 204 253 q 219 103 193 138 q 314 69 244 69 q 439 121 385 69 q 507 261 493 175 l 508 276 m 324 840 q 310 840 324 840 q 280 860 296 840 q 267 910 264 881 q 290 959 269 939 q 338 979 310 979 q 384 959 367 979 q 399 910 401 939 q 374 860 396 881 q 324 840 353 840 m 534 840 q 520 840 534 840 q 490 860 506 840 q 476 910 474 881 q 499 959 479 939 q 548 979 519 979 q 594 959 576 979 q 608 910 611 939 q 584 860 606 881 q 534 840 563 840 z "},"è":{"ha":643,"x_min":78,"x_max":633,"o":"m 340 74 q 493 194 463 74 l 594 194 q 500 40 571 94 q 332 -15 429 -15 q 147 78 213 -15 q 94 331 78 175 q 196 586 111 492 q 397 681 279 681 q 583 568 529 681 q 600 308 633 467 l 190 308 q 267 92 176 146 q 340 74 297 74 m 458 576 q 392 593 432 593 q 319 577 351 593 q 264 533 288 561 q 200 392 214 478 l 519 392 q 458 576 535 531 m 293 1022 l 569 838 l 535 768 l 243 925 l 293 1022 z "},"é":{"ha":643,"x_min":78,"x_max":633,"o":"m 493 194 q 594 194 493 194 q 500 40 571 94 q 332 -15 429 -15 q 147 78 213 -15 q 94 331 78 175 q 196 586 111 492 q 397 681 279 681 q 583 568 529 681 q 600 308 633 467 l 190 308 q 219 142 182 203 q 340 74 260 74 q 493 194 463 74 m 392 593 q 264 533 315 593 q 200 392 214 478 l 519 392 q 500 531 529 476 q 459 576 486 560 q 392 593 432 593 m 576 925 l 256 768 l 233 838 l 544 1022 l 576 925 z "},"ê":{"ha":643,"x_min":82,"x_max":638,"o":"m 344 74 q 497 194 467 74 l 599 194 q 504 40 575 94 q 336 -15 433 -15 q 151 78 217 -15 q 99 331 82 175 q 200 586 115 492 q 401 681 283 681 q 588 568 533 681 q 604 308 638 467 l 194 308 q 272 92 181 146 q 344 74 301 74 m 464 576 q 396 593 436 593 q 324 577 356 593 q 267 533 292 561 q 204 392 218 478 l 524 392 q 464 576 539 531 m 628 822 l 561 768 l 413 918 l 236 768 l 179 822 l 424 1039 l 628 822 z "},"ë":{"ha":643,"x_min":78,"x_max":633,"o":"m 340 74 q 493 194 463 74 l 594 194 q 500 40 571 94 q 332 -15 429 -15 q 147 78 213 -15 q 94 331 78 175 q 196 586 111 492 q 397 681 279 681 q 583 568 529 681 q 600 308 633 467 l 190 308 q 267 92 176 146 q 340 74 297 74 m 458 576 q 392 593 432 593 q 319 577 351 593 q 264 533 288 561 q 200 392 214 478 l 519 392 q 458 576 535 531 m 297 840 q 282 840 297 840 q 252 860 268 840 q 239 910 236 881 q 262 959 242 939 q 310 979 282 979 q 356 959 339 979 q 371 910 374 939 q 347 860 368 881 q 297 840 325 840 m 506 840 q 492 840 506 840 q 462 860 478 840 q 449 910 446 881 q 472 959 451 939 q 520 979 492 979 q 566 959 549 979 q 581 910 583 939 q 556 860 578 881 q 506 840 535 840 z "},"ì":{"ha":374,"x_min":101,"x_max":428,"o":"m 194 665 l 293 665 l 231 0 l 132 0 l 194 665 m 151 1015 l 428 831 l 393 761 l 101 918 l 151 1015 z "},"í":{"ha":374,"x_min":92,"x_max":435,"o":"m 132 0 l 194 665 l 293 665 l 231 0 l 132 0 m 435 918 l 114 761 l 92 831 l 403 1015 l 435 918 z "},"î":{"ha":374,"x_min":35,"x_max":483,"o":"m 194 665 l 293 665 l 231 0 l 132 0 l 194 665 m 483 815 l 417 761 l 268 911 l 92 761 l 35 815 l 279 1032 l 483 815 z "},"ï":{"ha":374,"x_min":94,"x_max":442,"o":"m 194 665 l 293 665 l 231 0 l 132 0 l 194 665 m 155 840 q 141 840 155 840 q 110 860 126 840 q 97 910 94 881 q 120 959 100 939 q 169 979 140 979 q 215 959 197 979 q 229 910 232 939 q 205 860 226 881 q 155 840 183 840 m 365 840 q 350 840 365 840 q 320 860 336 840 q 307 910 304 881 q 330 959 310 939 q 378 979 350 979 q 424 959 407 979 q 439 910 442 939 q 415 860 436 881 q 365 840 393 840 z "},"ñ":{"ha":756,"x_min":126,"x_max":699,"o":"m 488 681 q 647 603 594 681 q 685 390 699 525 l 649 0 l 551 0 l 588 390 q 561 535 597 486 q 449 583 525 583 q 319 512 372 583 q 254 314 265 440 l 225 0 l 126 0 l 189 664 l 274 664 l 272 535 q 488 681 347 681 m 379 890 q 301 819 338 890 l 264 846 q 389 990 308 990 q 455 967 415 990 q 507 936 494 943 q 528 925 519 929 q 557 918 542 918 q 629 990 597 918 l 669 958 q 616 856 650 892 q 556 819 582 819 q 510 828 529 819 q 454 858 490 836 q 379 890 400 890 z "},"ò":{"ha":683,"x_min":78,"x_max":669,"o":"m 406 681 q 516 658 467 681 q 597 592 565 636 q 653 332 669 497 q 549 72 636 165 q 340 -15 465 -15 q 149 72 215 -15 q 94 332 78 165 q 197 592 111 499 q 406 681 281 681 m 400 586 q 260 519 313 586 q 196 333 207 451 q 222 147 185 214 q 346 79 258 79 q 488 147 433 79 q 553 333 542 214 q 526 519 564 451 q 400 586 488 586 m 313 1015 l 589 831 l 554 761 l 263 918 l 313 1015 z "},"ó":{"ha":683,"x_min":78,"x_max":669,"o":"m 406 681 q 597 592 532 681 q 653 332 669 497 q 549 72 636 165 q 340 -15 465 -15 q 149 72 215 -15 q 94 332 78 165 q 197 592 111 499 q 292 658 239 636 q 406 681 346 681 m 400 586 q 260 519 313 586 q 196 333 207 451 q 222 147 185 214 q 346 79 258 79 q 488 147 433 79 q 553 333 542 214 q 526 519 564 451 q 400 586 488 586 m 596 918 l 275 761 l 253 831 l 564 1015 l 596 918 z "},"ô":{"ha":683,"x_min":78,"x_max":669,"o":"m 406 681 q 516 658 467 681 q 597 592 565 636 q 653 332 669 497 q 549 72 636 165 q 340 -15 465 -15 q 149 72 215 -15 q 94 332 78 165 q 197 592 111 499 q 406 681 281 681 m 400 586 q 260 519 313 586 q 196 333 207 451 q 222 147 185 214 q 346 79 258 79 q 488 147 433 79 q 553 333 542 214 q 526 519 564 451 q 400 586 488 586 m 642 815 l 575 761 l 426 911 l 250 761 l 193 815 l 438 1032 l 642 815 z "},"õ":{"ha":683,"x_min":78,"x_max":669,"o":"m 406 681 q 597 592 532 681 q 653 332 669 497 q 549 72 636 165 q 340 -15 465 -15 q 149 72 215 -15 q 94 332 78 165 q 197 592 111 499 q 292 658 239 636 q 406 681 346 681 m 400 586 q 260 519 313 586 q 196 333 207 451 q 222 147 185 214 q 346 79 258 79 q 488 147 433 79 q 553 333 542 214 q 526 519 564 451 q 400 586 488 586 m 340 890 q 263 819 299 890 l 225 846 q 350 990 269 990 q 416 967 376 990 q 468 936 456 943 q 489 925 481 929 q 518 918 503 918 q 590 990 558 918 l 631 958 q 577 856 611 892 q 517 819 543 819 q 471 828 490 819 q 415 858 451 836 q 340 890 361 890 z "},"ö":{"ha":683,"x_min":78,"x_max":669,"o":"m 406 681 q 516 658 467 681 q 597 592 565 636 q 653 332 669 497 q 549 72 636 165 q 340 -15 465 -15 q 149 72 215 -15 q 94 332 78 165 q 197 592 111 499 q 406 681 281 681 m 400 586 q 260 519 313 586 q 196 333 207 451 q 222 147 185 214 q 346 79 258 79 q 488 147 433 79 q 553 333 542 214 q 526 519 564 451 q 400 586 488 586 m 315 840 q 300 840 315 840 q 270 860 286 840 q 257 910 254 881 q 280 959 260 939 q 328 979 300 979 q 374 959 357 979 q 389 910 392 939 q 365 860 386 881 q 315 840 343 840 m 524 840 q 510 840 524 840 q 480 860 496 840 q 467 910 464 881 q 490 959 469 939 q 538 979 510 979 q 584 959 567 979 q 599 910 601 939 q 574 860 596 881 q 524 840 553 840 z "},"ù":{"ha":757,"x_min":119,"x_max":693,"o":"m 544 132 q 332 -12 471 -12 q 175 50 231 -12 q 131 243 119 113 l 171 665 l 269 665 l 231 251 q 356 83 214 83 q 497 156 439 83 q 564 342 553 226 l 594 665 l 693 665 l 631 0 l 532 0 l 544 132 m 350 1068 l 626 883 l 592 814 l 300 971 l 350 1068 z "},"ú":{"ha":757,"x_min":119,"x_max":693,"o":"m 356 83 q 497 156 439 83 q 564 342 553 226 l 594 665 l 693 665 l 631 0 l 532 0 l 544 132 q 332 -12 471 -12 q 175 50 231 -12 q 131 243 119 113 l 171 665 l 269 665 l 231 251 q 356 83 214 83 m 633 971 l 313 814 l 290 883 l 601 1068 l 633 971 z "},"û":{"ha":757,"x_min":119,"x_max":693,"o":"m 544 132 q 332 -12 471 -12 q 175 50 231 -12 q 131 243 119 113 l 171 665 l 269 665 l 231 251 q 356 83 214 83 q 497 156 439 83 q 564 342 553 226 l 594 665 l 693 665 l 631 0 l 532 0 l 544 132 m 681 868 l 614 814 l 465 964 l 289 814 l 232 868 l 476 1085 l 681 868 z "},"ü":{"ha":757,"x_min":119,"x_max":693,"o":"m 544 132 q 332 -12 471 -12 q 175 50 231 -12 q 131 243 119 113 l 171 665 l 269 665 l 231 251 q 356 83 214 83 q 497 156 439 83 q 564 342 553 226 l 594 665 l 693 665 l 631 0 l 532 0 l 544 132 m 348 840 q 334 840 348 840 q 303 860 319 840 q 290 910 288 881 q 313 959 293 939 q 362 979 333 979 q 408 959 390 979 q 422 910 425 939 q 398 860 419 881 q 348 840 376 840 m 558 840 q 543 840 558 840 q 513 860 529 840 q 500 910 497 881 q 523 959 503 939 q 572 979 543 979 q 617 959 600 979 q 632 910 635 939 q 608 860 629 881 q 558 840 586 840 z "},"ı":{"ha":350,"x_min":126,"x_max":288,"o":"m 189 665 l 288 665 l 225 0 l 126 0 l 189 665 z "},"ʼ":{"ha":231,"x_min":103,"x_max":306,"o":"m 207 726 q 161 747 179 729 q 146 796 143 765 q 171 847 149 826 q 228 868 193 868 q 285 837 264 868 q 301 758 306 806 q 263 662 296 711 q 172 582 231 613 l 103 622 q 207 726 188 667 z "},"ˆ":{"ha":508,"x_min":124,"x_max":572,"o":"m 572 994 l 506 940 l 357 1090 l 181 940 l 124 994 l 368 1211 l 572 994 z "},"˜":{"ha":457,"x_min":125,"x_max":531,"o":"m 240 1069 q 163 999 199 1069 l 125 1025 q 250 1169 169 1169 q 316 1146 276 1169 q 368 1115 356 1122 q 389 1104 381 1108 q 418 1097 403 1097 q 490 1169 458 1097 l 531 1138 q 477 1035 511 1071 q 417 999 443 999 q 371 1007 390 999 q 315 1036 351 1015 q 240 1069 261 1069 z "},"–":{"ha":593,"x_min":103,"x_max":567,"o":"m 111 451 l 567 451 l 557 357 l 103 357 l 111 451 z "},"—":{"ha":907,"x_min":103,"x_max":881,"o":"m 111 451 l 881 451 l 872 357 l 103 357 l 111 451 z "},"‘":{"ha":268,"x_min":106,"x_max":307,"o":"m 264 654 q 239 602 261 624 q 182 581 217 581 q 126 613 147 581 q 110 692 106 644 q 149 790 115 740 q 242 869 183 839 l 307 829 q 204 724 224 783 q 249 703 232 721 q 264 654 267 685 z "},"’":{"ha":268,"x_min":78,"x_max":279,"o":"m 119 797 q 144 849 122 828 q 202 869 167 869 q 258 839 238 869 q 274 760 279 808 q 235 662 269 711 q 143 581 201 613 l 78 622 q 181 728 161 668 q 135 749 153 731 q 119 797 117 767 z "},"₹":{"ha":726,"x_min":147,"x_max":718,"o":"m 197 874 l 718 874 l 710 806 l 482 806 q 574 663 563 756 l 697 663 l 692 596 l 572 596 q 404 375 550 436 q 283 347 353 354 l 593 0 l 453 0 l 147 344 l 154 411 l 231 411 q 395 464 338 411 q 465 596 453 517 l 171 596 l 178 663 l 467 663 q 410 766 458 726 q 267 806 363 806 l 190 806 l 197 874 z "},"−":{"ha":610,"x_min":132,"x_max":554,"o":"m 554 451 l 544 358 l 132 358 l 142 451 l 554 451 z "}}}
